<svg xmlns="http://www.w3.org/2000/svg" xmlns:xlink="http://www.w3.org/1999/xlink" width="1080" zoomAndPan="magnify" viewBox="0 0 810 809.999993" height="1080" preserveAspectRatio="xMidYMid meet" version="1.0"><defs><g/><clipPath id="4d38810e90"><path d="M 9 178 L 801 178 L 801 699.664062 L 9 699.664062 Z M 9 178 " clip-rule="nonzero"/></clipPath></defs><g clip-path="url(#4d38810e90)"><path fill="#c37fcb" d="M 791.773438 365.980469 C 784.382812 380.921875 771.757812 392.640625 756.417969 399.128906 C 745.394531 403.792969 733.355469 405.679688 721.492188 406.726562 C 706.757812 408.027344 691.765625 407.027344 677.539062 402.921875 C 674.714844 405.761719 671.511719 408.21875 668.023438 410.199219 C 647.339844 421.921875 623.101562 417.832031 600.484375 419.511719 C 590.445312 420.257812 580.136719 422.507812 571.632812 428.140625 C 563.242188 433.707031 558.261719 442.75 555.214844 452.121094 C 548.648438 472.441406 549.617188 495.550781 536.40625 513.378906 C 524.460938 529.480469 504.523438 539.089844 484.394531 537.140625 C 463.378906 535.109375 445.503906 522.515625 436.113281 503.65625 C 425.503906 482.355469 425.929688 458.671875 423.234375 435.59375 C 423.203125 435.390625 423.203125 435.339844 423.203125 435.339844 C 423.1875 435.277344 423.171875 435.152344 423.121094 434.898438 C 423.027344 434.308594 422.933594 433.738281 422.820312 433.152344 C 422.582031 431.929688 422.3125 430.710938 421.980469 429.519531 C 421.265625 426.808594 420.363281 424.113281 419.125 421.574219 C 416.382812 415.992188 412.320312 410.820312 406.292969 408.628906 C 391.890625 403.414062 379.835938 415.433594 367.925781 421.574219 C 353.332031 429.074219 337.613281 434.074219 321.339844 436.167969 C 311.253906 437.464844 301.039062 437.546875 290.933594 436.355469 C 285.320312 435.691406 279.765625 434.722656 274.28125 433.359375 C 271.28125 432.613281 268.300781 431.757812 265.347656 430.804688 C 264.683594 430.582031 263.921875 430.390625 263.191406 430.140625 C 255.59375 434.628906 249.582031 441.066406 245.140625 448.761719 C 233.390625 469.140625 234.640625 493.503906 237.050781 516.074219 C 239.605469 540.105469 243.730469 565.085938 236.6875 588.769531 C 230.914062 608.152344 217.734375 625.710938 197.890625 632.023438 C 177.445312 638.527344 155.492188 631.65625 141.21875 616.019531 C 108.511719 580.1875 123.375 529.84375 117.789062 486.476562 C 116.363281 475.40625 113.445312 464.304688 108.003906 454.5 C 105.480469 449.980469 102.847656 447.0625 98.804688 443.351562 C 89.445312 434.785156 78.851562 427.585938 68.953125 419.65625 C 44.164062 399.78125 22.796875 375.480469 14.566406 344.089844 C 11.375 331.8125 10.042969 318.855469 9.980469 306.230469 C 9.871094 282.675781 15.089844 258.421875 28.507812 238.738281 C 48.09375 210.046875 81.421875 196.183594 114.824219 191.265625 C 150.101562 186.078125 185.757812 191.710938 218.257812 206.144531 C 228.488281 210.695312 238.351562 216.074219 247.632812 222.339844 C 250.914062 224.558594 254.738281 226.84375 257.769531 229.601562 C 267.710938 224.242188 278.433594 220.355469 289.539062 218.261719 C 310.347656 214.34375 332.015625 216.152344 351.554688 224.417969 C 368.003906 231.378906 382.40625 242.277344 393.90625 255.820312 C 399.570312 246.480469 406.816406 238.089844 415.238281 231.140625 C 434.066406 215.582031 457.683594 206.84375 482.09375 206.238281 C 495.210938 205.921875 508.472656 208 520.890625 212.21875 C 527.15625 214.34375 533.28125 217.007812 539.132812 220.101562 C 542.226562 221.75 545.253906 223.542969 548.207031 225.449219 C 556.34375 213.28125 567 202.941406 579.390625 195.105469 C 631.492188 162.097656 716.957031 179.65625 738.511719 241.324219 C 756.464844 246.050781 771.820312 257.15625 782.699219 272.191406 C 801.796875 298.632812 806.351562 336.476562 791.773438 365.980469 Z M 585.019531 593.335938 C 582.53125 588.816406 579.816406 584.390625 576.722656 580.25 C 574.011719 576.617188 571.078125 572.890625 567.207031 570.433594 C 561.832031 567.039062 556.328125 568.832031 551.820312 572.652344 C 550 574.207031 548.363281 575.96875 546.570312 577.554688 C 546.351562 577.746094 546.113281 577.953125 545.890625 578.140625 C 545.828125 578.1875 545.621094 578.363281 545.476562 578.457031 C 545.050781 578.777344 544.605469 579.078125 544.160156 579.347656 C 544.144531 579.363281 544.113281 579.378906 544.097656 579.378906 C 534.089844 567.578125 518.039062 563.4375 502.828125 564.53125 C 486.917969 565.675781 470.882812 572.003906 460.476562 584.484375 C 455.65625 590.277344 451.976562 597.015625 450.246094 604.34375 C 449.929688 604.359375 449.628906 604.375 449.308594 604.390625 C 447.359375 604.457031 445.425781 604.457031 443.472656 604.472656 C 439.730469 604.503906 435.96875 604.535156 432.242188 604.996094 C 428.609375 605.4375 424.851562 606.105469 421.726562 608.152344 C 418.125 610.5 416.824219 613.863281 415.9375 617.921875 C 412.417969 634.019531 415.875 650.597656 425.3125 664.078125 C 433.894531 676.355469 446.152344 686.09375 459.761719 692.3125 C 465.582031 694.976562 471.660156 697.179688 477.988281 698.226562 C 486.773438 699.6875 495.941406 699.148438 504.683594 697.609375 C 519.703125 694.976562 536.039062 686.648438 541.273438 671.535156 C 554.582031 671.34375 567.984375 668.679688 578.675781 660.304688 C 589.507812 651.832031 594.363281 638.320312 594.394531 624.851562 C 594.410156 618.636719 593.554688 612.273438 591.253906 606.46875 C 589.492188 601.949219 587.351562 597.585938 585.019531 593.335938 Z M 585.019531 593.335938 " fill-opacity="1" fill-rule="nonzero"/></g><path fill="#dfa7ed" d="M 711.976562 376.496094 C 691.640625 380.570312 670.402344 381.253906 650.703125 374.8125 C 642.566406 384.488281 629.449219 388.691406 616.773438 390.121094 C 604.101562 391.546875 591.269531 390.4375 578.546875 391.308594 C 565.828125 392.183594 552.632812 395.371094 543.273438 403.902344 C 533.199219 413.085938 529.140625 426.917969 526.554688 440.210938 C 523.984375 453.503906 522.335938 467.332031 515.59375 479.101562 C 507.824219 492.679688 493.339844 502.308594 477.671875 504.324219 C 462 506.335938 445.488281 500.691406 434.449219 489.539062 C 424.691406 479.691406 419.425781 466.269531 416.714844 452.789062 C 414.003906 439.289062 413.605469 425.460938 412.195312 411.769531 C 411.304688 403.125 405.578125 379.097656 383.328125 379.699219 C 377.09375 379.875 371.113281 382.109375 366.003906 385.648438 C 352.347656 395.132812 308.429688 420.636719 253.882812 401.304688 L 253.597656 400.9375 C 237.640625 408.964844 227.867188 425.953125 224.378906 443.289062 C 220.890625 460.625 222.777344 478.515625 224.792969 496.074219 C 226.804688 513.632812 228.914062 531.476562 225.839844 548.878906 C 222.761719 566.277344 213.65625 583.519531 198.097656 592.289062 C 186.757812 598.683594 172.574219 599.933594 160.25 595.652344 C 140.265625 588.707031 127.464844 568.71875 122.691406 548.355469 C 117.917969 527.988281 119.628906 506.796875 119.726562 485.890625 C 119.835938 464.984375 118.027344 443.191406 107.210938 425.222656 C 94.171875 403.554688 34.597656 381.492188 19.054688 322.328125 C 19.054688 322.328125 -10.164062 218.261719 83.53125 187.617188 C 177.222656 156.972656 247.488281 218.578125 246.425781 217.738281 L 247.996094 218.753906 C 269.1875 206.367188 295.105469 202.082031 319.230469 206.984375 C 343.355469 211.886719 365.5625 227 380.042969 246.636719 C 392.8125 221.195312 418.523438 202.875 446.757812 197.308594 C 474.894531 191.773438 503.808594 198.148438 528.742188 215.488281 L 528.855469 216.027344 C 542.066406 193.488281 565.226562 176.832031 591.03125 171.328125 C 599.183594 169.582031 607.558594 168.902344 615.902344 169.011719 C 637.046875 169.28125 658.394531 174.832031 675.777344 186.714844 C 693.148438 198.59375 706.203125 217.121094 709.34375 237.738281 L 709.929688 239.40625 C 779.449219 247.480469 789.964844 360.855469 711.976562 376.496094 Z M 574.726562 588.753906 C 571.917969 579.742188 565.464844 571.988281 557.261719 567.355469 C 549.046875 562.707031 538.800781 561.613281 529.519531 563.246094 C 525.636719 557.347656 519.625 553.015625 513.039062 550.480469 C 506.441406 547.941406 499.273438 547.132812 492.214844 547.386719 C 480.539062 547.816406 468.851562 551.226562 459.414062 558.09375 C 449.976562 564.960938 442.964844 575.414062 441.269531 586.976562 C 431.816406 588.453125 423.25 597.160156 420.679688 606.375 C 407.816406 652.609375 455.417969 671.34375 471.769531 672.421875 C 503.554688 674.515625 521.527344 660.367188 524.746094 644.996094 C 532.710938 645.15625 540.78125 644.570312 548.394531 642.238281 C 556.007812 639.890625 563.210938 635.6875 568.222656 629.5 C 574.980469 621.171875 577.296875 609.910156 576.566406 599.207031 C 576.328125 595.667969 575.773438 592.132812 574.726562 588.753906 Z M 574.726562 588.753906 " fill-opacity="1" fill-rule="nonzero"/><path fill="#c37fcb" d="M 754.484375 259.390625 C 744.253906 246.304688 729.867188 238.042969 713.71875 235.203125 C 713.277344 233.21875 712.941406 231.1875 712.417969 229.222656 C 711.386719 225.414062 710.007812 221.734375 708.421875 218.136719 C 705.375 211.265625 701.285156 204.953125 696.511719 199.164062 C 686.246094 186.730469 672.558594 177.71875 657.601562 171.945312 C 626.625 159.988281 589.175781 161.304688 560.339844 178.292969 C 547.316406 185.96875 536.121094 196.515625 527.695312 209.046875 C 524.90625 207.238281 522.050781 205.558594 519.117188 203.988281 C 513.484375 200.988281 507.585938 198.433594 501.542969 196.375 C 489.582031 192.3125 476.8125 190.3125 464.1875 190.617188 C 440.664062 191.203125 417.90625 199.625 399.773438 214.613281 C 391.734375 221.261719 384.800781 229.269531 379.359375 238.183594 C 368.304688 225.226562 354.507812 214.789062 338.722656 208.109375 C 319.882812 200.148438 299.007812 198.402344 278.957031 202.179688 C 268.316406 204.191406 258.019531 207.921875 248.472656 213.042969 C 245.570312 210.425781 241.9375 208.238281 238.796875 206.128906 C 229.773438 200.039062 220.160156 194.804688 210.214844 190.410156 C 179.015625 176.609375 144.800781 171.234375 110.9375 176.230469 C 78.753906 180.972656 46.683594 194.34375 27.824219 221.972656 C 14.851562 240.992188 9.839844 264.464844 9.980469 287.242188 C 10.058594 299.328125 11.34375 311.71875 14.421875 323.4375 C 22.382812 353.796875 43.082031 377.226562 67.066406 396.417969 C 76.550781 404.015625 86.71875 410.914062 95.664062 419.164062 C 99.722656 422.890625 102.039062 425.554688 104.5625 430.1875 C 109.703125 439.625 112.445312 450.296875 113.746094 460.910156 C 118.871094 502.703125 104.738281 551.699219 136.933594 585.820312 C 150.847656 600.554688 172.003906 606.804688 191.46875 600.332031 C 210.675781 593.957031 223.285156 576.699219 228.644531 557.777344 C 235.148438 534.792969 230.992188 510.730469 228.582031 487.492188 C 226.347656 466 225.441406 442.9375 236.78125 423.652344 C 240.96875 416.515625 246.632812 410.550781 253.707031 406.347656 C 254.390625 406.570312 255.085938 406.757812 255.722656 406.964844 C 258.542969 407.886719 261.414062 408.710938 264.300781 409.421875 C 269.585938 410.742188 274.960938 411.660156 280.371094 412.3125 C 290.078125 413.46875 299.910156 413.375 309.601562 412.136719 C 325.289062 410.121094 340.4375 405.316406 354.507812 398.066406 C 365.910156 392.199219 377.488281 380.636719 391.273438 385.632812 C 397.03125 387.726562 400.886719 392.660156 403.503906 397.988281 C 404.691406 400.398438 405.53125 402.984375 406.230469 405.585938 C 406.53125 406.742188 406.800781 407.917969 407.039062 409.089844 C 407.148438 409.644531 407.246094 410.21875 407.339844 410.773438 C 407.371094 410.976562 407.386719 411.089844 407.402344 411.167969 C 407.402344 411.183594 407.402344 411.246094 407.421875 411.40625 C 409.988281 433.628906 409.625 456.453125 419.824219 476.960938 C 428.878906 495.15625 446.136719 507.304688 466.410156 509.253906 C 485.824219 511.128906 505.0625 501.847656 516.578125 486.304688 C 529.300781 469.140625 528.363281 446.90625 534.675781 427.347656 C 537.578125 418.371094 542.335938 409.710938 550.378906 404.378906 C 558.53125 398.972656 568.398438 396.828125 578.023438 396.101562 C 599.820312 394.480469 623.152344 398.414062 643.074219 387.121094 C 646.402344 385.234375 649.480469 382.886719 652.175781 380.175781 C 652.445312 380.253906 652.714844 380.316406 652.984375 380.382812 C 659.535156 383.394531 666.390625 385.742188 673.398438 387.34375 C 679.808594 388.804688 686.375 389.675781 692.957031 389.914062 C 695.527344 390.007812 697.714844 387.660156 697.714844 385.15625 C 697.714844 384.585938 697.589844 384.03125 697.414062 383.539062 C 707.628906 382.523438 717.953125 380.699219 727.457031 376.796875 C 742.347656 370.675781 754.847656 359.839844 762.382812 345.519531 C 776.5625 318.539062 773.230469 283.390625 754.484375 259.390625 Z M 728.929688 365.710938 C 719.445312 370.609375 708.707031 372.703125 698.175781 373.910156 C 684.136719 375.511719 669.988281 375.101562 656.347656 371.484375 C 648.957031 368.042969 641.976562 363.695312 635.730469 358.492188 C 630.988281 354.558594 626.640625 350.164062 622.722656 345.421875 C 621.089844 343.441406 617.695312 343.726562 615.996094 345.421875 C 614.03125 347.390625 614.347656 350.164062 615.996094 352.148438 C 623.644531 361.410156 633 369.246094 643.375 375.355469 C 628.957031 387.441406 607.289062 386.011719 589.507812 386.171875 C 569.601562 386.34375 547.808594 389.296875 534.851562 406.171875 C 522.382812 422.414062 522.382812 443.460938 517.179688 462.417969 C 514.546875 472.011719 510.203125 480.6875 502.828125 487.507812 C 496.101562 493.726562 487.535156 497.898438 478.496094 499.421875 C 459.445312 502.65625 440.207031 492.902344 430.433594 476.550781 C 419.046875 457.484375 419.222656 434.5 417.09375 413.085938 C 415.96875 401.652344 412.097656 389.265625 402.980469 381.667969 C 397 376.6875 389.355469 374.355469 381.582031 375.035156 C 373.253906 375.78125 366.816406 379.589844 359.960938 383.949219 C 333.441406 400.84375 300.734375 407.789062 269.855469 400.9375 C 267.410156 400.398438 264.984375 399.78125 262.574219 399.082031 C 261.128906 398.667969 259.6875 398.226562 258.257812 397.765625 C 257.703125 397.589844 257.164062 397.402344 256.609375 397.210938 C 255.199219 395.894531 252.769531 395.988281 251.183594 396.8125 C 234.722656 405.332031 224.285156 422.304688 220.207031 440.003906 C 214.894531 463.128906 219.304688 486.714844 221.523438 509.921875 C 223.523438 530.746094 223.746094 552.921875 212.515625 571.402344 C 202.125 588.515625 182.15625 597.652344 162.582031 591.402344 C 145.390625 585.914062 134.046875 569.496094 128.878906 552.953125 C 122.105469 531.335938 124.375 508.160156 124.484375 485.875 C 124.578125 464.921875 122.753906 442.9375 112.207031 424.347656 C 107.164062 415.46875 98.835938 409.089844 90.90625 402.9375 C 68.128906 385.28125 44.828125 367.722656 31.394531 341.472656 C 27.617188 334.097656 24.761719 326.261719 22.921875 318.1875 C 22.398438 315.890625 21.957031 313.574219 21.558594 311.257812 C 20.863281 307.179688 20.71875 306.054688 20.304688 302.027344 C 18.292969 282.261719 19.734375 262.339844 27 243.78125 C 36.800781 218.800781 57.929688 201.417969 82.960938 192.820312 C 116.964844 181.128906 153.75 181.097656 187.914062 192.042969 C 199.96875 195.914062 211.5625 201.035156 222.570312 207.300781 C 226.519531 209.554688 230.390625 211.933594 234.148438 214.488281 C 235.515625 215.40625 236.863281 216.359375 238.210938 217.328125 C 238.273438 217.390625 238.335938 217.484375 238.417969 217.546875 C 255.371094 231.761719 268.839844 250.160156 276.878906 270.8125 C 279.195312 276.757812 281.066406 282.851562 282.527344 289.066406 C 283.921875 295.03125 293.105469 292.507812 291.710938 286.53125 C 286.316406 263.5625 275.023438 242.148438 259.339844 224.558594 C 258.039062 223.101562 256.671875 221.671875 255.308594 220.261719 C 275.308594 210.203125 298.769531 207.03125 320.625 212.171875 C 342.609375 217.34375 362.484375 231 375.949219 249.050781 C 377.917969 251.683594 382.390625 252.539062 384.167969 249.050781 C 403.691406 210.726562 449.546875 192.820312 490.550781 203.097656 C 502 205.96875 512.707031 210.871094 522.621094 217.183594 C 518.703125 224.304688 515.832031 232.03125 514.214844 239.992188 C 513.722656 242.417969 514.914062 245.242188 517.546875 245.84375 C 519.925781 246.382812 522.875 245.132812 523.398438 242.515625 C 525.144531 233.917969 528.140625 226.273438 532.566406 218.976562 C 532.710938 218.800781 532.882812 218.644531 533.011719 218.4375 C 533.789062 217.136719 534.613281 215.867188 535.453125 214.597656 C 535.785156 214.121094 536.121094 213.628906 536.46875 213.15625 C 536.484375 213.125 536.5 213.089844 536.515625 213.058594 C 551.300781 191.851562 575.027344 177.5 600.816406 174.515625 C 631.222656 170.996094 664.789062 179.070312 686.261719 201.910156 C 691.464844 207.445312 695.796875 213.726562 699.113281 220.5625 C 700.777344 224.003906 702.09375 227.589844 703.125 231.269531 C 703.964844 234.296875 704.296875 237.453125 705.296875 240.421875 C 705.296875 240.4375 705.3125 240.46875 705.3125 240.484375 C 705.328125 240.546875 705.34375 240.625 705.375 240.691406 C 705.375 240.707031 705.390625 240.707031 705.390625 240.722656 C 705.949219 242.738281 707.851562 243.925781 709.960938 244.179688 C 737.84375 247.574219 756.671875 271.269531 760.828125 297.933594 C 764.984375 324.675781 753.660156 352.957031 728.929688 365.710938 Z M 562.71875 565.167969 C 553.664062 558.839844 542.464844 557.015625 531.664062 558.1875 C 521.703125 545.925781 505.332031 541.628906 489.867188 542.738281 C 473.957031 543.882812 457.921875 550.210938 447.535156 562.691406 C 442.601562 568.609375 438.890625 575.523438 437.207031 583.042969 C 429.199219 585.40625 422.296875 591.765625 418.523438 599.0625 C 414.796875 606.28125 413.464844 615.289062 413.796875 623.363281 C 414.335938 636.621094 420.285156 648.789062 429.894531 657.859375 C 438.015625 665.523438 448.105469 671.074219 458.699219 674.484375 C 471.039062 678.464844 484.777344 678.273438 497.257812 675.054688 C 500.542969 674.214844 503.824219 673.039062 506.964844 671.582031 C 504.191406 675.355469 500.921875 678.796875 497.226562 681.765625 C 495.230469 683.382812 495.546875 686.808594 497.226562 688.488281 C 499.210938 690.472656 501.953125 690.105469 503.953125 688.488281 C 513.644531 680.71875 520.796875 669.773438 524.160156 657.8125 C 524.175781 657.78125 524.175781 657.75 524.175781 657.734375 C 525.90625 655.292969 527.332031 652.625 528.332031 649.722656 C 538.59375 649.582031 548.855469 648.027344 558.121094 643.394531 C 567.621094 638.636719 574.742188 630.707031 578.453125 620.761719 C 582.148438 610.863281 582.464844 599.109375 579.753906 588.925781 C 577.152344 579.234375 570.902344 570.894531 562.71875 565.167969 Z M 570.171875 615.511719 C 567.808594 623.472656 562.703125 629.851562 555.519531 633.988281 C 546.652344 639.097656 536.339844 640.285156 526.269531 640.238281 C 526.03125 632.292969 524.253906 624.394531 521.082031 616.984375 C 520.066406 614.621094 516.59375 614.097656 514.578125 615.273438 C 512.136719 616.699219 511.851562 619.414062 512.867188 621.777344 C 517.132812 631.753906 517.941406 643.171875 515.371094 653.707031 C 515.324219 653.769531 515.261719 653.832031 515.214844 653.894531 C 514.738281 654.449219 514.246094 655.007812 513.738281 655.53125 C 512.769531 656.527344 511.742188 657.449219 510.675781 658.335938 C 510.582031 658.417969 510.535156 658.464844 510.472656 658.511719 C 510.457031 658.511719 510.457031 658.511719 510.457031 658.527344 C 510.171875 658.75 509.867188 658.957031 509.566406 659.175781 C 508.835938 659.699219 508.09375 660.191406 507.332031 660.652344 C 504.476562 662.414062 501.984375 663.554688 499.273438 664.492188 C 491.628906 667.171875 484 667.996094 475.925781 667.820312 C 474.261719 667.789062 472.59375 667.726562 470.929688 667.566406 C 470.851562 667.566406 470.738281 667.550781 470.597656 667.550781 C 470.5625 667.550781 470.515625 667.535156 470.453125 667.519531 C 470.152344 667.457031 469.835938 667.425781 469.515625 667.378906 C 467.773438 667.09375 466.042969 666.695312 464.332031 666.21875 C 462.300781 665.664062 460.285156 665.015625 458.304688 664.300781 C 457.429688 663.984375 456.574219 663.632812 455.71875 663.285156 C 455.496094 663.191406 454.78125 662.890625 454.574219 662.792969 C 453.925781 662.507812 453.292969 662.207031 452.65625 661.90625 C 450.40625 660.828125 448.214844 659.636719 446.089844 658.320312 C 445.074219 657.703125 444.074219 657.050781 443.09375 656.371094 C 442.570312 656.003906 442.046875 655.640625 441.539062 655.277344 C 441.21875 655.054688 440.917969 654.816406 440.617188 654.59375 C 440.554688 654.546875 440.539062 654.53125 440.507812 654.515625 C 440.460938 654.484375 440.445312 654.449219 440.363281 654.402344 C 438.367188 652.738281 436.414062 651.054688 434.621094 649.183594 C 433.71875 648.234375 432.847656 647.265625 432.003906 646.25 C 431.78125 645.980469 431.5625 645.710938 431.355469 645.441406 C 431.339844 645.410156 431.324219 645.394531 431.292969 645.347656 C 430.832031 644.695312 430.355469 644.0625 429.910156 643.394531 C 428.46875 641.238281 427.199219 638.9375 426.152344 636.558594 C 426.121094 636.449219 425.691406 635.386719 425.613281 635.148438 C 425.375 634.496094 425.152344 633.832031 424.945312 633.164062 C 424.488281 631.65625 424.105469 630.136719 423.804688 628.582031 C 423.757812 628.296875 423.695312 628.007812 423.644531 627.707031 C 423.597656 627.453125 423.566406 627.199219 423.519531 626.929688 C 423.425781 626.121094 423.34375 625.3125 423.296875 624.503906 C 423.171875 622.617188 423.171875 620.714844 423.265625 618.808594 C 423.472656 615.050781 424.042969 611.671875 425.199219 607.597656 C 427.453125 599.746094 434.304688 592.925781 442.457031 591.527344 C 443.1875 591.402344 443.804688 591.035156 444.328125 590.546875 C 445.074219 589.957031 445.628906 589.164062 445.773438 588.199219 C 450.085938 560.28125 482.871094 546.496094 508.234375 553.859375 C 514.992188 555.808594 521.351562 559.710938 525.332031 565.609375 C 526.632812 567.53125 528.488281 568.164062 530.710938 567.800781 C 538.972656 566.402344 548.015625 567.449219 555.3125 571.734375 C 561.925781 575.605469 567.335938 581.917969 569.792969 589.132812 C 572.695312 597.492188 572.679688 607.105469 570.171875 615.511719 Z M 570.171875 615.511719 " fill-opacity="1" fill-rule="nonzero"/><path fill="#fdf9f5" d="M 685.265625 237.898438 C 686.992188 243.800781 677.808594 246.289062 676.082031 240.4375 C 669.355469 217.484375 648.816406 200.464844 624.878906 198.53125 C 622.308594 198.324219 620.121094 196.515625 620.121094 193.773438 C 620.121094 191.34375 622.308594 188.808594 624.878906 189.015625 C 639.1875 190.171875 652.699219 195.582031 663.757812 204.765625 C 674.050781 213.296875 681.519531 225.097656 685.265625 237.898438 Z M 601.40625 187.300781 C 597.152344 187.664062 592.933594 188.316406 588.777344 189.316406 C 586.351562 189.902344 584.6875 192.773438 585.449219 195.167969 C 586.257812 197.691406 588.699219 199.117188 591.300781 198.5 C 593.617188 197.945312 595.949219 197.515625 598.3125 197.167969 C 599.34375 197.039062 600.375 196.914062 601.40625 196.832031 C 602.691406 196.722656 603.832031 196.375 604.769531 195.4375 C 605.59375 194.613281 606.210938 193.265625 606.164062 192.074219 C 606.117188 190.835938 605.703125 189.570312 604.769531 188.710938 C 603.878906 187.886719 602.65625 187.207031 601.40625 187.300781 Z M 723.632812 266.894531 C 721.492188 265.464844 718.367188 266.464844 717.128906 268.605469 C 715.765625 270.9375 716.6875 273.699219 718.84375 275.109375 C 731.023438 283.199219 737.941406 298.964844 735.75 313.066406 C 735.355469 315.605469 736.402344 318.1875 739.082031 318.917969 C 741.335938 319.539062 744.539062 318.15625 744.933594 315.585938 C 747.835938 296.746094 739.574219 277.488281 723.632812 266.894531 Z M 502.207031 220.277344 C 484.410156 211.457031 463.824219 209.300781 444.628906 214.457031 C 438.714844 216.042969 441.238281 225.226562 447.167969 223.640625 C 463.824219 219.167969 481.9375 220.832031 497.417969 228.492188 C 499.71875 229.636719 502.574219 229.113281 503.921875 226.78125 C 505.140625 224.6875 504.523438 221.417969 502.207031 220.277344 Z M 307.636719 224.066406 C 305.097656 223.71875 302.527344 224.6875 301.78125 227.398438 C 301.164062 229.617188 302.542969 232.902344 305.113281 233.25 C 322.625 235.679688 338.992188 243.480469 351.667969 255.820312 C 356.0625 260.105469 362.785156 253.378906 358.390625 249.097656 C 344.640625 235.695312 326.683594 226.699219 307.636719 224.066406 Z M 171.65625 207.476562 C 159.886719 204.75 147.753906 203.496094 135.683594 203.71875 C 129.558594 203.828125 129.542969 213.34375 135.683594 213.234375 C 155.558594 212.851562 175.652344 216.628906 193.75 224.972656 C 210.40625 232.648438 225.140625 243.910156 236.796875 258.074219 C 243.191406 265.847656 248.441406 274.554688 252.550781 283.738281 C 253.597656 286.085938 257.007812 286.640625 259.050781 285.449219 C 261.464844 284.039062 261.8125 281.296875 260.765625 278.949219 C 244.476562 242.484375 210.214844 216.4375 171.65625 207.476562 Z M 111.113281 204.527344 C 103.625 204.445312 96.332031 206.175781 89.574219 209.347656 C 87.320312 210.410156 86.558594 213.835938 87.859375 215.851562 C 89.351562 218.183594 91.953125 218.691406 94.363281 217.5625 C 94.761719 217.375 95.203125 217.105469 95.632812 216.992188 C 95.570312 217.007812 95.554688 217.007812 95.503906 217.023438 C 95.617188 216.992188 95.726562 216.960938 95.773438 216.929688 C 96.519531 216.628906 97.28125 216.359375 98.058594 216.089844 C 99.535156 215.597656 101.042969 215.183594 102.5625 214.851562 C 103.292969 214.691406 104.039062 214.550781 104.785156 214.421875 C 105.007812 214.390625 105.246094 214.34375 105.464844 214.3125 C 106.003906 214.234375 105.925781 214.25 105.226562 214.34375 C 105.546875 214.25 105.941406 214.265625 106.257812 214.234375 C 107.878906 214.074219 109.496094 214.011719 111.113281 214.027344 C 113.601562 214.058594 115.984375 211.824219 115.871094 209.269531 C 115.761719 206.683594 113.792969 204.558594 111.113281 204.527344 Z M 146.929688 476.675781 C 147.183594 474.121094 144.566406 471.917969 142.167969 471.917969 C 139.394531 471.917969 137.664062 474.105469 137.410156 476.675781 C 134.699219 504.6875 138.679688 533.316406 148.910156 559.535156 C 149.847656 561.929688 152.097656 563.597656 154.761719 562.867188 C 157.046875 562.234375 159.03125 559.425781 158.09375 557.015625 C 148.117188 531.460938 144.296875 503.957031 146.929688 476.675781 Z M 148.785156 450.347656 C 149.023438 449.078125 148.972656 447.839844 148.308594 446.683594 C 147.738281 445.699219 146.59375 444.746094 145.46875 444.492188 C 144.246094 444.222656 142.882812 444.269531 141.804688 444.96875 C 140.804688 445.605469 139.839844 446.601562 139.617188 447.808594 C 138.886719 451.710938 138.539062 455.660156 138.792969 459.625 C 138.871094 460.894531 139.265625 462.066406 140.1875 462.988281 C 141.011719 463.8125 142.359375 464.429688 143.550781 464.382812 C 144.785156 464.335938 146.054688 463.921875 146.914062 462.988281 C 147.738281 462.082031 148.386719 460.878906 148.308594 459.625 C 148.148438 457.070312 148.230469 454.5 148.53125 451.964844 C 148.609375 451.425781 148.6875 450.886719 148.785156 450.347656 Z M 469.898438 647.265625 C 461 645.820312 452.292969 641.476562 447.40625 633.734375 C 442.617188 626.105469 442.363281 616.398438 447.566406 609.023438 C 449.039062 606.929688 447.945312 603.726562 445.851562 602.519531 C 443.472656 601.125 440.824219 602.125 439.347656 604.234375 C 432.433594 614.050781 432.796875 627.914062 438.875 638.050781 C 444.917969 648.121094 455.925781 654.609375 467.359375 656.464844 C 469.898438 656.878906 472.484375 655.800781 473.214844 653.132812 C 473.847656 650.851562 472.453125 647.679688 469.898438 647.265625 Z M 458.035156 592.449219 C 459.253906 592.71875 460.621094 592.671875 461.699219 591.972656 C 462.710938 591.324219 463.617188 590.339844 463.886719 589.132812 C 464.441406 586.613281 465.011719 584.105469 465.566406 581.582031 C 465.835938 580.347656 465.742188 579.03125 465.09375 577.917969 C 464.519531 576.9375 463.378906 575.984375 462.253906 575.730469 C 461.03125 575.460938 459.667969 575.507812 458.589844 576.207031 C 457.574219 576.855469 456.667969 577.839844 456.398438 579.046875 C 455.84375 581.566406 455.273438 584.074219 454.71875 586.59375 C 454.449219 587.832031 454.542969 589.148438 455.195312 590.257812 C 455.765625 591.242188 456.90625 592.179688 458.035156 592.449219 Z M 458.035156 592.449219 " fill-opacity="1" fill-rule="nonzero"/><path fill="#ffffff" d="M 198.445312 264.53125 C 197.652344 265.402344 196.8125 266.320312 195.957031 267.242188 C 195.148438 266.402344 194.335938 265.578125 193.511719 264.734375 C 194.511719 263.847656 195.511719 262.945312 196.511719 262.054688 C 197.050781 262.753906 197.589844 263.433594 198.445312 264.53125 Z M 201.96875 571.890625 C 200.144531 573.082031 198.507812 574.589844 195.988281 576.699219 C 198.382812 577.855469 200.046875 579.171875 200.570312 578.824219 C 202.09375 577.792969 203.394531 576.207031 204.265625 574.574219 C 204.488281 574.160156 202.125 571.78125 201.96875 571.890625 Z M 194.6875 287.480469 C 194.386719 287.75 193.878906 287.988281 193.847656 288.273438 C 193.832031 288.558594 194.289062 288.878906 194.542969 289.195312 C 194.84375 288.925781 195.148438 288.671875 195.433594 288.402344 C 195.195312 288.101562 194.941406 287.796875 194.6875 287.480469 Z M 226.964844 296.457031 C 224.933594 297.269531 223.046875 298.457031 221.113281 299.503906 C 221.746094 300.171875 222.363281 300.835938 223.539062 302.089844 C 225.378906 300.695312 227.28125 299.25 229.203125 297.792969 C 228.457031 297.316406 227.457031 296.253906 226.964844 296.457031 Z M 118.820312 392.53125 C 118.203125 392.40625 116.695312 393.707031 116.648438 394.386719 C 116.585938 395.6875 116.933594 397.351562 117.757812 398.289062 C 118.742188 399.398438 120.421875 400.558594 121.773438 400.527344 C 130.351562 400.367188 139.0625 397.925781 147.292969 402.761719 C 147.960938 403.160156 149.863281 401.476562 151.671875 400.492188 C 149.132812 398.320312 148.070312 397.351562 146.945312 396.449219 C 138.394531 389.550781 128.148438 394.371094 118.820312 392.53125 Z M 192.65625 296.710938 C 192.832031 297.503906 193.308594 298.21875 193.65625 298.964844 C 194.257812 298.378906 194.859375 297.773438 195.464844 297.171875 C 194.859375 296.664062 194.304688 296.09375 193.640625 295.746094 C 193.511719 295.683594 192.609375 296.457031 192.65625 296.710938 Z M 130.050781 428.726562 C 129.957031 429.328125 130.957031 430.105469 131.464844 430.804688 C 131.875 429.964844 132.589844 429.125 132.605469 428.265625 C 132.621094 427.410156 131.972656 426.539062 131.605469 425.664062 C 131.066406 426.679688 130.226562 427.648438 130.050781 428.726562 Z M 239.921875 332.320312 C 240.367188 333.019531 240.734375 334.160156 241.304688 334.289062 C 242.015625 334.445312 242.90625 333.75 243.714844 333.414062 C 243.097656 332.464844 242.460938 331.511719 241.84375 330.5625 C 241.191406 331.148438 240.558594 331.734375 239.921875 332.320312 Z M 182.300781 563.183594 C 185.21875 565.578125 188.136719 567.972656 191.054688 570.371094 C 191.785156 569.195312 192.515625 568.023438 194.164062 565.390625 C 191.117188 563.628906 188.5 561.835938 185.628906 560.664062 C 184.980469 560.394531 183.441406 562.296875 182.300781 563.183594 Z M 326.304688 223.542969 C 326.066406 224.179688 326.71875 225.160156 326.972656 225.988281 C 327.699219 225.527344 328.890625 225.195312 329.066406 224.558594 C 329.285156 223.796875 328.652344 222.796875 328.398438 221.894531 C 327.667969 222.433594 326.574219 222.832031 326.304688 223.542969 Z M 332.824219 279.851562 C 332.761719 280.027344 333.742188 280.835938 333.855469 280.773438 C 334.550781 280.3125 335.140625 279.695312 335.757812 279.121094 C 335.1875 278.582031 334.617188 278.058594 334.046875 277.519531 C 333.617188 278.28125 333.109375 279.027344 332.824219 279.851562 Z M 343.515625 415.277344 L 344.386719 415.386719 L 344.070312 414.4375 Z M 89.761719 277.027344 C 90.636719 278.757812 91.984375 280.234375 93.140625 281.820312 C 93.394531 280.851562 93.664062 279.867188 94.824219 275.539062 C 94.808594 275.539062 92.886719 274.886719 90.90625 274.601562 C 90.605469 274.554688 89.492188 276.519531 89.761719 277.027344 Z M 243.492188 298.027344 C 241.273438 297.996094 237.609375 299.28125 237.101562 300.851562 C 235.734375 305.023438 235.148438 309.6875 235.5 314.050781 C 235.640625 315.777344 239.035156 317.253906 240.953125 318.839844 C 242.222656 317.015625 244.109375 315.332031 244.617188 313.304688 C 245.363281 310.351562 245.125 307.148438 245.441406 301.773438 C 245.394531 301.660156 244.460938 298.046875 243.492188 298.027344 Z M 359.929688 279.695312 C 360.3125 279.519531 360.691406 279.359375 361.390625 279.042969 C 360.597656 278.820312 360.074219 278.679688 359.535156 278.535156 C 359.675781 278.933594 359.804688 279.3125 359.929688 279.695312 Z M 322.910156 345.742188 C 317.582031 345.058594 314.695312 349.371094 314.550781 354.925781 C 314.425781 359.714844 315.710938 363.027344 321.433594 363.234375 C 327.335938 363.441406 328.699219 360.378906 327.621094 351.6875 C 327.367188 351.308594 325.449219 346.058594 322.910156 345.742188 Z M 241.160156 277.789062 C 237.703125 278.074219 234.484375 281.296875 231.167969 283.292969 C 233.992188 285.515625 236.796875 287.734375 240.589844 290.734375 C 243.570312 288.304688 247.285156 285.847656 247.046875 285.371094 C 245.554688 282.4375 243 277.648438 241.160156 277.789062 Z M 260.003906 316.824219 C 260.304688 317.109375 260.75 317.679688 260.890625 317.617188 C 261.667969 317.285156 262.382812 316.777344 263.113281 316.332031 C 262.828125 315.984375 262.542969 315.621094 262.257812 315.269531 C 261.511719 315.777344 260.765625 316.300781 260.003906 316.824219 Z M 275.53125 354.480469 C 265.128906 358.699219 270.886719 361.933594 275.5 365.441406 C 277.023438 366.597656 278.988281 367.152344 280.765625 367.992188 C 281.417969 366.25 282.558594 364.503906 282.636719 362.726562 C 282.890625 357.175781 282.734375 351.609375 282.734375 344.027344 C 280.117188 348.023438 278.625 353.226562 275.53125 354.480469 Z M 496.910156 477.023438 C 495.734375 476.3125 494.65625 475.28125 493.390625 474.949219 C 491.613281 474.457031 489.726562 474.359375 487.867188 474.152344 C 489.566406 475.644531 491.152344 477.328125 493.085938 478.359375 C 493.894531 478.785156 495.609375 477.515625 496.910156 477.023438 Z M 487.28125 468.683594 C 486.996094 468.921875 486.457031 469.191406 486.488281 469.363281 C 486.742188 470.695312 487.074219 472.027344 487.394531 473.34375 C 487.363281 471.773438 487.328125 470.21875 487.28125 468.683594 Z M 390.671875 268.050781 C 390.8125 267.71875 390.941406 267.402344 391.082031 267.066406 C 390.734375 266.925781 390.386719 266.78125 390.035156 266.640625 C 390.242188 267.117188 390.449219 267.589844 390.671875 268.050781 Z M 480.652344 304.089844 L 479.746094 304.421875 L 480.539062 304.960938 Z M 487.394531 474.089844 C 487.550781 474.105469 487.710938 474.121094 487.867188 474.136719 C 487.742188 474.027344 487.632812 473.917969 487.503906 473.820312 C 487.472656 473.664062 487.425781 473.503906 487.394531 473.34375 C 487.394531 473.582031 487.410156 473.804688 487.410156 474.042969 Z M 489.203125 402.367188 C 489.40625 403.269531 489.882812 404.109375 490.25 404.984375 C 490.613281 404.617188 490.976562 404.269531 491.328125 403.902344 C 490.945312 403.015625 490.550781 402.144531 490.167969 401.269531 C 489.835938 401.636719 489.136719 402.078125 489.203125 402.367188 Z M 645.847656 189.824219 C 647.785156 186.683594 650.511719 183.621094 649.972656 182.875 C 648.546875 180.875 645.738281 179.863281 643.46875 178.464844 C 642.5 180.320312 640.503906 182.367188 640.804688 183.953125 C 641.167969 185.824219 643.546875 187.300781 645.847656 189.824219 Z M 493.214844 391.675781 C 493.4375 391.246094 492.167969 389.375 491.691406 389.421875 C 490.597656 389.519531 488.867188 390.199219 488.679688 390.976562 C 488.410156 392.070312 489.296875 393.433594 489.898438 395.402344 C 491.40625 393.785156 492.613281 392.878906 493.214844 391.675781 Z M 704.027344 263.484375 C 703.933594 263.183594 703.839844 262.894531 703.742188 262.59375 C 703.378906 262.691406 703.011719 262.769531 702.648438 262.863281 C 702.742188 263.164062 702.808594 263.707031 702.933594 263.722656 C 703.296875 263.753906 703.664062 263.578125 704.027344 263.484375 Z M 53.679688 261.929688 C 55.296875 263.433594 56.773438 265.195312 58.644531 266.304688 C 59.183594 266.625 60.847656 265.054688 63.371094 263.5 C 60.4375 261.832031 58.628906 260.46875 56.597656 259.804688 C 55.914062 259.597656 54.664062 261.183594 53.679688 261.929688 Z M 643.816406 272.730469 C 644.136719 273.125 644.5 273.917969 644.738281 273.871094 C 645.65625 273.714844 646.53125 273.300781 647.417969 272.984375 C 646.878906 272.398438 646.355469 271.824219 645.816406 271.238281 C 645.152344 271.730469 644.484375 272.238281 643.816406 272.730469 Z M 137.964844 274.238281 C 138.441406 273.460938 139.234375 272.699219 139.296875 271.875 C 139.347656 271.113281 138.601562 270.304688 138.203125 269.527344 C 137.554688 270.476562 136.679688 271.351562 136.378906 272.398438 C 136.238281 272.839844 137.378906 273.617188 137.964844 274.238281 Z M 128.527344 188.15625 L 127.6875 187.984375 L 127.941406 189.09375 Z M 60.59375 358.367188 C 59.324219 356.035156 57.484375 353.878906 55.40625 352.242188 C 55.027344 351.941406 52.519531 354.320312 51 355.464844 C 52.804688 357.652344 54.597656 359.824219 57.375 363.1875 C 58.960938 360.871094 60.925781 359 60.59375 358.367188 Z M 61.59375 373.734375 C 61.214844 374.527344 60.738281 375.289062 60.53125 376.113281 C 60.46875 376.367188 61.085938 376.8125 61.386719 377.175781 C 61.769531 376.382812 62.242188 375.625 62.480469 374.78125 C 62.53125 374.527344 61.894531 374.085938 61.59375 373.734375 Z M 467.582031 273.0625 C 468.550781 273.03125 469.5 272.871094 470.46875 272.761719 C 470.246094 272.507812 470.058594 272.078125 469.851562 272.078125 C 468.914062 272.0625 467.980469 272.175781 467.042969 272.238281 C 467.21875 272.539062 467.40625 273.078125 467.582031 273.0625 Z M 446.804688 228.921875 C 447.707031 228.777344 448.5625 228.367188 449.4375 228.066406 C 449.167969 227.621094 448.816406 226.796875 448.644531 226.828125 C 447.722656 227.019531 446.851562 227.414062 445.949219 227.746094 C 446.234375 228.144531 446.597656 228.953125 446.804688 228.921875 Z M 190.308594 330.257812 C 190.976562 329.054688 191.5 327.738281 191.722656 326.390625 C 191.753906 326.152344 190.214844 325.660156 189.070312 325.121094 C 188.628906 326.578125 188.105469 327.960938 187.914062 329.386719 C 187.882812 329.59375 190.246094 330.386719 190.308594 330.257812 Z M 476.972656 211.710938 C 474.878906 208.984375 472.769531 206.238281 470.675781 203.511719 C 470.007812 204.128906 469.34375 204.75 467.726562 206.253906 C 469.914062 208.207031 471.914062 210.171875 474.148438 211.855469 C 474.71875 212.28125 476.003906 211.773438 476.972656 211.710938 Z M 188.46875 338.523438 C 188.5625 339.0625 189.992188 339.363281 190.800781 339.777344 C 191.214844 338.617188 191.832031 337.492188 191.925781 336.300781 C 191.957031 335.984375 190.421875 335.542969 189.070312 334.90625 C 188.800781 336.222656 188.277344 337.445312 188.46875 338.523438 Z M 686.882812 315.046875 C 686.027344 313.304688 685.613281 312.464844 685.183594 311.605469 C 683.933594 312.875 682.550781 314.050781 681.535156 315.476562 C 681.300781 315.824219 682.28125 317.03125 682.710938 317.839844 C 684.136719 316.902344 685.566406 315.9375 686.882812 315.046875 Z M 609.128906 273.554688 C 606.085938 275.855469 603.402344 278.628906 600.597656 281.246094 C 601.847656 282.484375 603.941406 284.960938 604.226562 284.769531 C 607.210938 282.753906 609.890625 280.296875 615.21875 275.824219 C 611.730469 274.460938 609.746094 273.09375 609.128906 273.554688 Z M 644.628906 219.945312 C 645.054688 218.355469 644.023438 216.390625 643.277344 212.933594 C 641.390625 215.375 639.964844 216.375 639.902344 217.453125 C 639.804688 219.371094 640.535156 221.324219 640.914062 223.257812 C 642.214844 222.179688 644.261719 221.292969 644.628906 219.945312 Z M 633.0625 341.679688 C 632.269531 343.15625 631.066406 344.566406 630.859375 346.121094 C 630.734375 347.023438 632.175781 348.152344 633.332031 349.753906 C 634.554688 348.039062 636.140625 346.738281 635.933594 345.914062 C 635.507812 344.34375 634.0625 343.074219 633.0625 341.679688 Z M 571.425781 229.03125 C 570.632812 228.9375 569.777344 229.570312 568.9375 229.90625 C 569.398438 230.886719 569.855469 231.871094 570.316406 232.855469 C 571.015625 232.285156 571.710938 231.726562 572.425781 231.15625 C 572.09375 230.394531 571.839844 229.078125 571.425781 229.03125 Z M 582.71875 269.714844 C 582.355469 269.367188 580.753906 269.496094 580.640625 269.765625 C 578.707031 274.410156 575.375 279.136719 575.503906 283.785156 C 575.644531 289.574219 581.578125 290.496094 586.367188 289.621094 C 589.554688 289.035156 592.441406 286.71875 595.265625 285.261719 C 594.617188 283.039062 594.617188 281.820312 593.996094 281.167969 C 590.332031 277.265625 586.558594 273.460938 582.71875 269.714844 Z M 535.421875 569.6875 C 534.867188 571.605469 533.976562 573.496094 533.867188 575.429688 C 533.804688 576.617188 534.898438 577.871094 536.515625 581.328125 C 537.183594 577.078125 537.832031 575.113281 537.65625 573.207031 C 537.53125 571.988281 536.199219 570.859375 535.421875 569.6875 Z M 538.847656 334.527344 C 541.910156 336.253906 544.90625 338.125 548.09375 339.585938 C 548.554688 339.792969 549.917969 338.015625 552.15625 335.96875 C 548.316406 333.480469 545.253906 331.402344 542.019531 329.703125 C 541.828125 329.609375 539.941406 332.84375 538.847656 334.527344 Z M 539.925781 295.96875 C 538.816406 296.871094 538.5 300.964844 539.292969 301.535156 C 541.117188 302.851562 544.683594 304.136719 546.046875 303.214844 C 550.617188 300.121094 554.675781 296.207031 558.515625 292.207031 C 559.117188 291.589844 557.578125 288.910156 556.199219 284.515625 C 549.523438 289.113281 544.476562 292.238281 539.925781 295.96875 Z M 559.800781 303.4375 C 559.5 303.40625 559.132812 303.914062 558.785156 304.183594 C 559.054688 304.515625 559.308594 305.085938 559.609375 305.121094 C 559.910156 305.152344 560.277344 304.644531 560.625 304.375 C 560.355469 304.054688 560.117188 303.46875 559.800781 303.4375 Z M 446.773438 235.820312 C 446.121094 236.058594 445.804688 237.230469 445.34375 237.992188 C 446.234375 238.3125 447.121094 238.613281 448.007812 238.929688 C 448.40625 238.167969 448.816406 237.390625 449.214844 236.628906 C 448.40625 236.328125 447.421875 235.597656 446.773438 235.820312 Z M 733.199219 326.722656 L 733.703125 325.992188 L 732.878906 325.898438 Z M 738.496094 337.984375 C 738.636719 339.253906 739.414062 340.457031 739.9375 341.679688 C 740.492188 340.964844 741.523438 340.238281 741.507812 339.539062 C 741.492188 338.269531 740.84375 337.015625 740.382812 335.492188 C 739.527344 336.574219 738.429688 337.332031 738.496094 337.984375 Z M 703.457031 327.5 C 700.699219 328.722656 698.875 332.097656 696.667969 334.605469 C 697.9375 335.699219 699.222656 336.808594 701.300781 338.585938 C 704.679688 336.269531 707.40625 334.398438 710.117188 332.542969 C 707.835938 330.71875 704.679688 326.945312 703.457031 327.5 Z M 748.121094 323.773438 C 747.425781 324.152344 747.140625 325.328125 746.679688 326.152344 C 747.597656 326.484375 748.628906 327.230469 749.375 327.007812 C 749.945312 326.832031 750.152344 325.4375 750.519531 324.582031 C 749.710938 324.265625 748.628906 323.488281 748.121094 323.773438 Z M 641.4375 313.589844 C 642.960938 315.476562 644.675781 317.300781 646.65625 318.679688 C 647.179688 319.046875 648.847656 317.761719 651.589844 316.507812 C 648.242188 313.984375 646.070312 312.273438 643.738281 310.8125 C 643.582031 310.703125 641.28125 313.382812 641.4375 313.589844 Z M 681.917969 368.769531 C 682.566406 370.40625 683.949219 371.753906 685.042969 373.195312 C 685.992188 372.308594 686.945312 371.4375 688.691406 369.832031 C 687.023438 368.328125 685.914062 366.945312 684.457031 366.25 C 684.074219 366.042969 681.726562 368.296875 681.917969 368.769531 Z M 658.046875 238.328125 C 657.761719 238.296875 657.425781 238.753906 657.109375 238.992188 C 657.363281 239.292969 657.617188 239.597656 657.871094 239.914062 C 658.1875 239.675781 658.507812 239.421875 658.808594 239.183594 C 658.554688 238.882812 658.332031 238.359375 658.046875 238.328125 Z M 667.386719 371.039062 L 667.53125 370.261719 L 666.722656 370.53125 Z M 674.652344 246.859375 C 674.144531 247.589844 673.035156 248.511719 673.210938 249 C 674.320312 252.378906 675.667969 255.679688 677.175781 258.914062 C 677.222656 259.027344 679.632812 258.027344 681.648438 257.296875 C 678.429688 252.492188 676.539062 249.683594 674.652344 246.859375 Z M 556.34375 341.632812 C 556.582031 341.316406 556.835938 340.996094 557.074219 340.695312 C 556.898438 340.332031 556.722656 339.964844 556.550781 339.601562 C 556.5 340.269531 556.421875 340.949219 556.34375 341.632812 Z M 463.871094 473.328125 C 462.792969 474.011719 461.984375 475.089844 461.0625 476.027344 C 461.730469 476.566406 462.695312 477.691406 463.03125 477.53125 C 464.21875 476.960938 465.1875 475.960938 466.359375 475.011719 C 465.21875 474.21875 464.140625 473.15625 463.871094 473.328125 Z M 460.429688 642.378906 C 461.046875 642.839844 461.664062 643.316406 462.300781 643.777344 C 462.808594 643.1875 463.300781 642.601562 463.792969 642 C 463.394531 641.792969 462.933594 641.363281 462.617188 641.445312 C 461.839844 641.617188 461.140625 642.046875 460.429688 642.378906 Z M 468.722656 444.9375 C 468.707031 444.953125 469.011719 444.652344 469.011719 444.652344 C 468.945312 444.558594 468.867188 444.460938 468.804688 444.382812 C 468.773438 444.574219 468.738281 444.761719 468.722656 444.9375 Z M 469.167969 444.875 C 471.992188 448.695312 474.832031 452.503906 477.652344 456.324219 C 476.257812 451.25 477.828125 443.003906 469.167969 444.875 Z M 469.183594 439.054688 C 468.738281 437.671875 466.628906 436.832031 465.25 435.769531 C 465.328125 437.117188 465.027344 438.65625 465.566406 439.78125 C 466.359375 441.449219 467.660156 442.890625 468.789062 444.398438 C 469.089844 442.542969 469.707031 440.625 469.183594 439.054688 Z M 449.976562 421.097656 C 450.039062 421.460938 450.085938 421.828125 450.152344 422.175781 C 450.152344 422.175781 450.292969 422.066406 450.386719 421.984375 L 450.152344 422.175781 C 450.324219 422.175781 450.484375 422.191406 450.65625 422.191406 C 450.59375 422.113281 450.53125 422.019531 450.46875 421.9375 C 450.308594 421.652344 450.152344 421.367188 449.976562 421.097656 Z M 451.722656 653.277344 C 450.800781 653.4375 449.914062 653.863281 449.023438 654.195312 C 449.359375 654.578125 449.769531 655.324219 450.023438 655.277344 C 450.945312 655.117188 451.816406 654.6875 452.71875 654.355469 C 452.386719 653.976562 451.992188 653.230469 451.722656 653.277344 Z M 452.148438 424.128906 C 452.417969 423.492188 452.703125 422.875 452.972656 422.238281 C 452.210938 422.222656 451.433594 422.207031 450.675781 422.191406 C 451.164062 422.84375 451.65625 423.492188 452.148438 424.128906 Z M 448.039062 417.734375 C 448.691406 418.84375 449.339844 419.972656 449.992188 421.082031 C 449.769531 419.75 449.5625 418.417969 449.339844 417.085938 C 448.914062 417.308594 448.46875 417.527344 448.039062 417.734375 Z M 504.539062 598.9375 L 505.109375 598.015625 L 504.160156 597.921875 Z M 511.34375 576 C 510.582031 578.203125 509.566406 580.378906 509.1875 582.644531 C 509.058594 583.390625 510.550781 584.421875 512.484375 586.738281 C 513.582031 582.835938 514.546875 580.664062 514.609375 578.476562 C 514.644531 577.679688 512.5 576.824219 511.34375 576 Z M 503.253906 585.246094 C 502.714844 585.027344 501.003906 586.054688 501.019531 586.421875 C 501.113281 587.609375 501.761719 588.753906 502.207031 589.910156 C 503.382812 589.433594 504.539062 588.960938 506.539062 588.164062 C 505.046875 586.769531 504.285156 585.675781 503.253906 585.246094 Z M 514.214844 449.695312 C 513.851562 449.679688 513.46875 450.078125 513.089844 450.296875 C 513.183594 450.695312 513.277344 451.074219 513.375 451.472656 C 513.960938 451.125 514.5625 450.789062 515.152344 450.441406 C 514.847656 450.171875 514.546875 449.710938 514.214844 449.695312 Z M 521.859375 231.855469 L 521.988281 230.933594 L 521.003906 231.269531 Z M 477.367188 640.367188 C 478.003906 641.539062 478.574219 642.761719 479.335938 643.855469 C 479.542969 644.140625 480.320312 644.015625 483.207031 644.394531 C 485.808594 642.507812 489.898438 639.714844 493.675781 636.558594 C 494.230469 636.097656 493.324219 633.894531 493.101562 632.5 C 487.851562 635.117188 482.601562 637.734375 477.367188 640.367188 Z M 472.46875 476.136719 C 472.46875 476.136719 472.769531 475.851562 472.769531 475.851562 C 472.324219 475.628906 471.878906 475.390625 471.4375 475.167969 C 471.769531 475.503906 472.117188 475.820312 472.46875 476.136719 Z M 474.53125 661.921875 C 474.355469 663.09375 475.5625 664.476562 476.164062 665.761719 C 477.351562 664.746094 478.558594 663.746094 480.207031 662.351562 C 478.796875 660.097656 477.828125 658.527344 476.84375 656.957031 C 476.019531 658.605469 474.785156 660.191406 474.53125 661.921875 Z M 469.167969 444.875 C 469.121094 444.8125 469.074219 444.730469 469.011719 444.667969 L 468.707031 444.96875 C 468.867188 444.921875 469.011719 444.90625 469.167969 444.875 Z M 497.054688 614.273438 C 496.433594 614.464844 496.085938 615.542969 495.609375 616.226562 C 496.417969 616.445312 497.371094 617.035156 498.003906 616.796875 C 498.6875 616.542969 499.066406 615.511719 499.574219 614.8125 C 498.71875 614.605469 497.765625 614.050781 497.054688 614.273438 Z M 497.054688 614.273438 " fill-opacity="1" fill-rule="nonzero"/><g fill="#000000" fill-opacity="1"><g transform="translate(54.625592, 385.893253)"><g><path d="M 176.257812 -27.847656 C 182.988281 -43.757812 176.257812 -61.199219 168.910156 -75.582031 C 163.097656 -87.210938 155.753906 -97.921875 148.105469 -108.019531 C 143.515625 -114.136719 138.3125 -119.953125 133.109375 -125.460938 C 118.421875 -142.289062 102.511719 -157.894531 86.597656 -173.195312 C 72.214844 -186.964844 57.527344 -200.429688 37.027344 -201.960938 C 29.988281 -202.570312 15.910156 -200.125 13.15625 -192.167969 C 11.933594 -192.167969 10.402344 -191.863281 8.875 -191.554688 C 3.367188 -190.636719 -1.222656 -185.4375 0.613281 -179.316406 C 0.917969 -178.398438 1.53125 -177.175781 1.835938 -175.949219 C 8.875 -141.984375 15.910156 -108.019531 22.644531 -73.746094 C 23.5625 -70.074219 24.175781 -66.707031 24.785156 -63.035156 L 23.5625 -63.953125 C 14.992188 -68.851562 3.367188 -65.789062 -1.53125 -57.222656 C -6.730469 -48.652344 -3.976562 -36.71875 4.894531 -31.824219 C 14.382812 -26.929688 23.867188 -22.644531 33.660156 -18.664062 C 35.191406 -11.320312 37.332031 -6.425781 44.0625 -1.835938 C 47.125 0.304688 51.40625 0.917969 55.386719 0.613281 C 57.527344 0.613281 59.058594 -0.304688 60.28125 -1.53125 C 61.507812 -0.917969 63.035156 -0.613281 64.566406 -0.917969 C 67.015625 -1.53125 69.15625 -3.671875 70.378906 -6.425781 C 77.722656 -4.589844 85.375 -3.058594 93.023438 -1.835938 C 109.242188 0.613281 125.152344 1.222656 141.066406 -2.449219 C 154.835938 -5.8125 170.441406 -14.382812 176.257812 -27.847656 Z M 11.320312 -153.613281 C 15.300781 -140.453125 28.457031 -85.984375 32.4375 -71.605469 C 33.660156 -66.402344 35.496094 -61.199219 37.332031 -55.996094 C 35.496094 -56.914062 33.660156 -58.140625 31.824219 -59.058594 L 23.5625 -91.800781 C 18.054688 -112.914062 13.769531 -134.027344 8.566406 -155.140625 C 7.648438 -159.425781 11.015625 -154.835938 11.320312 -153.613281 Z M 141.066406 -60.28125 C 143.207031 -56.914062 145.042969 -52.9375 146.878906 -49.265625 C 148.714844 -45.59375 150.550781 -42.226562 151.164062 -38.25 C 147.796875 -35.191406 143.515625 -33.660156 138.3125 -32.4375 C 131.886719 -30.601562 127.296875 -30.601562 119.953125 -30.601562 C 111.996094 -30.90625 108.019531 -31.519531 100.0625 -33.355469 C 89.964844 -35.496094 80.171875 -38.554688 70.6875 -41.921875 C 69.15625 -51.101562 67.320312 -60.28125 65.789062 -69.460938 C 61.507812 -94.859375 56.914062 -120.5625 51.714844 -145.960938 L 57.527344 -142.902344 C 71.910156 -134.640625 84.148438 -125.765625 95.777344 -115.054688 C 107.40625 -104.957031 117.808594 -93.328125 126.988281 -81.089844 C 131.886719 -74.359375 136.476562 -67.320312 141.066406 -60.28125 Z M 141.066406 -60.28125 "/></g></g></g><g fill="#000000" fill-opacity="1"><g transform="translate(202.728827, 385.893253)"><g><path d="M 176.257812 -27.847656 C 182.988281 -43.757812 176.257812 -61.199219 168.910156 -75.582031 C 163.097656 -87.210938 155.753906 -97.921875 148.105469 -108.019531 C 143.515625 -114.136719 138.3125 -119.953125 133.109375 -125.460938 C 118.421875 -142.289062 102.511719 -157.894531 86.597656 -173.195312 C 72.214844 -186.964844 57.527344 -200.429688 37.027344 -201.960938 C 29.988281 -202.570312 15.910156 -200.125 13.15625 -192.167969 C 11.933594 -192.167969 10.402344 -191.863281 8.875 -191.554688 C 3.367188 -190.636719 -1.222656 -185.4375 0.613281 -179.316406 C 0.917969 -178.398438 1.53125 -177.175781 1.835938 -175.949219 C 8.875 -141.984375 15.910156 -108.019531 22.644531 -73.746094 C 23.5625 -70.074219 24.175781 -66.707031 24.785156 -63.035156 L 23.5625 -63.953125 C 14.992188 -68.851562 3.367188 -65.789062 -1.53125 -57.222656 C -6.730469 -48.652344 -3.976562 -36.71875 4.894531 -31.824219 C 14.382812 -26.929688 23.867188 -22.644531 33.660156 -18.664062 C 35.191406 -11.320312 37.332031 -6.425781 44.0625 -1.835938 C 47.125 0.304688 51.40625 0.917969 55.386719 0.613281 C 57.527344 0.613281 59.058594 -0.304688 60.28125 -1.53125 C 61.507812 -0.917969 63.035156 -0.613281 64.566406 -0.917969 C 67.015625 -1.53125 69.15625 -3.671875 70.378906 -6.425781 C 77.722656 -4.589844 85.375 -3.058594 93.023438 -1.835938 C 109.242188 0.613281 125.152344 1.222656 141.066406 -2.449219 C 154.835938 -5.8125 170.441406 -14.382812 176.257812 -27.847656 Z M 11.320312 -153.613281 C 15.300781 -140.453125 28.457031 -85.984375 32.4375 -71.605469 C 33.660156 -66.402344 35.496094 -61.199219 37.332031 -55.996094 C 35.496094 -56.914062 33.660156 -58.140625 31.824219 -59.058594 L 23.5625 -91.800781 C 18.054688 -112.914062 13.769531 -134.027344 8.566406 -155.140625 C 7.648438 -159.425781 11.015625 -154.835938 11.320312 -153.613281 Z M 141.066406 -60.28125 C 143.207031 -56.914062 145.042969 -52.9375 146.878906 -49.265625 C 148.714844 -45.59375 150.550781 -42.226562 151.164062 -38.25 C 147.796875 -35.191406 143.515625 -33.660156 138.3125 -32.4375 C 131.886719 -30.601562 127.296875 -30.601562 119.953125 -30.601562 C 111.996094 -30.90625 108.019531 -31.519531 100.0625 -33.355469 C 89.964844 -35.496094 80.171875 -38.554688 70.6875 -41.921875 C 69.15625 -51.101562 67.320312 -60.28125 65.789062 -69.460938 C 61.507812 -94.859375 56.914062 -120.5625 51.714844 -145.960938 L 57.527344 -142.902344 C 71.910156 -134.640625 84.148438 -125.765625 95.777344 -115.054688 C 107.40625 -104.957031 117.808594 -93.328125 126.988281 -81.089844 C 131.886719 -74.359375 136.476562 -67.320312 141.066406 -60.28125 Z M 141.066406 -60.28125 "/></g></g></g><g fill="#000000" fill-opacity="1"><g transform="translate(350.832062, 385.893253)"><g><path d="M 176.257812 -27.847656 C 182.988281 -43.757812 176.257812 -61.199219 168.910156 -75.582031 C 163.097656 -87.210938 155.753906 -97.921875 148.105469 -108.019531 C 143.515625 -114.136719 138.3125 -119.953125 133.109375 -125.460938 C 118.421875 -142.289062 102.511719 -157.894531 86.597656 -173.195312 C 72.214844 -186.964844 57.527344 -200.429688 37.027344 -201.960938 C 29.988281 -202.570312 15.910156 -200.125 13.15625 -192.167969 C 11.933594 -192.167969 10.402344 -191.863281 8.875 -191.554688 C 3.367188 -190.636719 -1.222656 -185.4375 0.613281 -179.316406 C 0.917969 -178.398438 1.53125 -177.175781 1.835938 -175.949219 C 8.875 -141.984375 15.910156 -108.019531 22.644531 -73.746094 C 23.5625 -70.074219 24.175781 -66.707031 24.785156 -63.035156 L 23.5625 -63.953125 C 14.992188 -68.851562 3.367188 -65.789062 -1.53125 -57.222656 C -6.730469 -48.652344 -3.976562 -36.71875 4.894531 -31.824219 C 14.382812 -26.929688 23.867188 -22.644531 33.660156 -18.664062 C 35.191406 -11.320312 37.332031 -6.425781 44.0625 -1.835938 C 47.125 0.304688 51.40625 0.917969 55.386719 0.613281 C 57.527344 0.613281 59.058594 -0.304688 60.28125 -1.53125 C 61.507812 -0.917969 63.035156 -0.613281 64.566406 -0.917969 C 67.015625 -1.53125 69.15625 -3.671875 70.378906 -6.425781 C 77.722656 -4.589844 85.375 -3.058594 93.023438 -1.835938 C 109.242188 0.613281 125.152344 1.222656 141.066406 -2.449219 C 154.835938 -5.8125 170.441406 -14.382812 176.257812 -27.847656 Z M 11.320312 -153.613281 C 15.300781 -140.453125 28.457031 -85.984375 32.4375 -71.605469 C 33.660156 -66.402344 35.496094 -61.199219 37.332031 -55.996094 C 35.496094 -56.914062 33.660156 -58.140625 31.824219 -59.058594 L 23.5625 -91.800781 C 18.054688 -112.914062 13.769531 -134.027344 8.566406 -155.140625 C 7.648438 -159.425781 11.015625 -154.835938 11.320312 -153.613281 Z M 141.066406 -60.28125 C 143.207031 -56.914062 145.042969 -52.9375 146.878906 -49.265625 C 148.714844 -45.59375 150.550781 -42.226562 151.164062 -38.25 C 147.796875 -35.191406 143.515625 -33.660156 138.3125 -32.4375 C 131.886719 -30.601562 127.296875 -30.601562 119.953125 -30.601562 C 111.996094 -30.90625 108.019531 -31.519531 100.0625 -33.355469 C 89.964844 -35.496094 80.171875 -38.554688 70.6875 -41.921875 C 69.15625 -51.101562 67.320312 -60.28125 65.789062 -69.460938 C 61.507812 -94.859375 56.914062 -120.5625 51.714844 -145.960938 L 57.527344 -142.902344 C 71.910156 -134.640625 84.148438 -125.765625 95.777344 -115.054688 C 107.40625 -104.957031 117.808594 -93.328125 126.988281 -81.089844 C 131.886719 -74.359375 136.476562 -67.320312 141.066406 -60.28125 Z M 141.066406 -60.28125 "/></g></g></g><g fill="#000000" fill-opacity="1"><g transform="translate(498.93529, 385.893253)"><g/></g></g><g fill="#000000" fill-opacity="1"><g transform="translate(532.288681, 385.893253)"><g><path d="M 113.832031 -22.03125 C 113.21875 -67.320312 111.691406 -112.914062 113.527344 -158.203125 C 113.527344 -163.710938 115.054688 -170.746094 113.527344 -176.257812 C 113.527344 -176.867188 112.914062 -176.867188 112.609375 -176.5625 C 110.773438 -171.972656 111.078125 -166.464844 110.464844 -161.875 C 109.546875 -155.140625 108.9375 -148.410156 108.324219 -141.679688 C 107.101562 -128.519531 106.183594 -115.363281 105.570312 -101.898438 C 104.957031 -89.65625 104.652344 -77.417969 104.347656 -65.484375 C 104.347656 -66.707031 104.039062 -67.933594 104.039062 -69.15625 C 103.121094 -81.089844 103.121094 -92.71875 103.429688 -104.652344 C 103.734375 -129.132812 106.792969 -152.386719 109.855469 -176.257812 C 110.160156 -179.316406 108.628906 -182.375 106.488281 -184.824219 C 107.40625 -187.882812 103.121094 -190.945312 100.367188 -188.800781 L 100.0625 -188.800781 C 93.636719 -190.636719 85.679688 -186.660156 84.148438 -179.929688 C 83.84375 -178.398438 83.539062 -177.175781 83.230469 -175.644531 L 76.195312 -169.21875 C 65.484375 -158.203125 51.714844 -150.246094 37.945312 -143.515625 C 30.292969 -139.535156 20.503906 -136.476562 16.21875 -128.214844 C 10.710938 -117.808594 17.136719 -105.265625 28.457031 -103.121094 C 39.167969 -101.285156 49.570312 -105.875 58.445312 -110.773438 C 63.953125 -114.136719 69.460938 -117.808594 74.359375 -121.480469 C 74.050781 -116.585938 73.441406 -111.382812 73.132812 -106.183594 C 71.910156 -85.375 72.214844 -63.035156 73.441406 -42.839844 C 74.359375 -30.292969 72.523438 -2.449219 89.964844 0 C 91.492188 0 93.023438 0 94.246094 -0.304688 C 95.164062 0.613281 96.085938 1.222656 97.613281 1.222656 C 103.734375 1.222656 109.242188 -2.449219 111.078125 -8.261719 C 112.300781 -11.628906 112.300781 -14.992188 111.996094 -18.359375 C 112.914062 -19.277344 113.832031 -20.503906 113.832031 -22.03125 Z M 113.832031 -22.03125 "/></g></g></g><g fill="#000000" fill-opacity="1"><g transform="translate(629.902019, 385.893253)"><g><path d="M 113.832031 -22.03125 C 113.21875 -67.320312 111.691406 -112.914062 113.527344 -158.203125 C 113.527344 -163.710938 115.054688 -170.746094 113.527344 -176.257812 C 113.527344 -176.867188 112.914062 -176.867188 112.609375 -176.5625 C 110.773438 -171.972656 111.078125 -166.464844 110.464844 -161.875 C 109.546875 -155.140625 108.9375 -148.410156 108.324219 -141.679688 C 107.101562 -128.519531 106.183594 -115.363281 105.570312 -101.898438 C 104.957031 -89.65625 104.652344 -77.417969 104.347656 -65.484375 C 104.347656 -66.707031 104.039062 -67.933594 104.039062 -69.15625 C 103.121094 -81.089844 103.121094 -92.71875 103.429688 -104.652344 C 103.734375 -129.132812 106.792969 -152.386719 109.855469 -176.257812 C 110.160156 -179.316406 108.628906 -182.375 106.488281 -184.824219 C 107.40625 -187.882812 103.121094 -190.945312 100.367188 -188.800781 L 100.0625 -188.800781 C 93.636719 -190.636719 85.679688 -186.660156 84.148438 -179.929688 C 83.84375 -178.398438 83.539062 -177.175781 83.230469 -175.644531 L 76.195312 -169.21875 C 65.484375 -158.203125 51.714844 -150.246094 37.945312 -143.515625 C 30.292969 -139.535156 20.503906 -136.476562 16.21875 -128.214844 C 10.710938 -117.808594 17.136719 -105.265625 28.457031 -103.121094 C 39.167969 -101.285156 49.570312 -105.875 58.445312 -110.773438 C 63.953125 -114.136719 69.460938 -117.808594 74.359375 -121.480469 C 74.050781 -116.585938 73.441406 -111.382812 73.132812 -106.183594 C 71.910156 -85.375 72.214844 -63.035156 73.441406 -42.839844 C 74.359375 -30.292969 72.523438 -2.449219 89.964844 0 C 91.492188 0 93.023438 0 94.246094 -0.304688 C 95.164062 0.613281 96.085938 1.222656 97.613281 1.222656 C 103.734375 1.222656 109.242188 -2.449219 111.078125 -8.261719 C 112.300781 -11.628906 112.300781 -14.992188 111.996094 -18.359375 C 112.914062 -19.277344 113.832031 -20.503906 113.832031 -22.03125 Z M 113.832031 -22.03125 "/></g></g></g></svg>